<svg width="16" height="12" viewBox="0 0 16 12" fill="none" xmlns="http://www.w3.org/2000/svg">
<path d="M13.3333 0H2.66667C1.2 0 0 1.2 0 2.66667V9.33333C0 10.8 1.2 12 2.66667 12H13.3333C14.8 12 16 10.8 16 9.33333V2.66667C16 1.2 14.8 0 13.3333 0ZM14.4 3.86667L9.13333 7.4C8.8 7.6 8.4 7.73333 8 7.73333C7.6 7.73333 7.2 7.6 6.86667 7.4L1.6 3.86667C1.33333 3.66667 1.26667 3.26667 1.46667 2.93333C1.66667 2.66667 2.06667 2.6 2.4 2.8L7.66667 6.33333C7.86667 6.46667 8.2 6.46667 8.4 6.33333L13.6667 2.8C14 2.6 14.4 2.66667 14.6 3C14.7333 3.26667 14.6667 3.66667 14.4 3.86667Z" fill="black"/>
</svg>
