<?xml version="1.0" ?><svg fill="none" height="24" viewBox="0 0 24 24" width="24" xmlns="http://www.w3.org/2000/svg"><g clip-path="url(#clip0_201_1239)"><path d="M14.0711 7.58579L13.2426 8.41421C12.8676 8.78929 12.3589 9 11.8284 9H10.4142C10.0391 9 9.67943 9.149 9.41421 9.41421V9.41421C8.86193 9.9665 8.86193 10.8619 9.41421 11.4142L11.2426 13.2426C12.0237 14.0237 13.29 14.0237 14.0711 13.2426L15.4853 11.8284L16.4493 13.9492C16.8382 14.8048 17.962 15.0086 18.6266 14.344V14.344C18.879 14.0916 19.0208 13.7492 19.0208 13.3922V9.12132C19.0208 8.59089 19.2315 8.08218 19.6066 7.70711L21.8492 5.46447C22.3206 4.99306 22.9806 3.76741 21.8492 2.63604C20.7179 1.50467 19.4922 2.16463 19.0208 2.63604L17.253 4.40381M14.0711 7.58579L12.0511 6.91247C11.0299 6.57208 10.724 5.27602 11.4851 4.51487V4.51487C11.7804 4.21961 12.1887 4.06618 12.6054 4.09396L17.253 4.40381M14.0711 7.58579L17.253 4.40381" stroke="#FAA50A" stroke-linecap="round" stroke-linejoin="round" stroke-width="2"/><path d="M2 14.9052C2.70535 13.6708 3.82529 12.5855 5 11.7005M2 22.4052C3.07229 19.4028 5.05483 16.8411 7.02294 14.9052M7.5 21.4052C8.22108 19.963 9.45972 18.3283 10.5867 17" stroke="#FAA50A" stroke-linecap="round" stroke-linejoin="round" stroke-width="2"/></g><defs><clipPath id="clip0_201_1239"><rect fill="white" height="24" width="24"/></clipPath></defs></svg>