<svg width="24" height="24" viewBox="0 0 24 24" fill="none" xmlns="http://www.w3.org/2000/svg">
<path d="M6.5 17.5L14 14L17.5 6.5L10 10L6.5 17.5ZM12 13C11.7167 13 11.479 12.904 11.287 12.712C11.095 12.52 10.9993 12.2827 11 12C11 11.7167 11.096 11.479 11.288 11.287C11.48 11.095 11.7173 10.9993 12 11C12.2833 11 12.521 11.096 12.713 11.288C12.905 11.48 13.0007 11.7173 13 12C13 12.2833 12.904 12.521 12.712 12.713C12.52 12.905 12.2827 13.0007 12 13ZM12 22C10.6167 22 9.31667 21.7373 8.1 21.212C6.88333 20.6867 5.825 19.9743 4.925 19.075C4.025 18.175 3.31267 17.1167 2.788 15.9C2.26333 14.6833 2.00067 13.3833 2 12C2 10.6167 2.26267 9.31667 2.788 8.1C3.31333 6.88333 4.02567 5.825 4.925 4.925C5.825 4.025 6.88333 3.31267 8.1 2.788C9.31667 2.26333 10.6167 2.00067 12 2C13.3833 2 14.6833 2.26267 15.9 2.788C17.1167 3.31333 18.175 4.02567 19.075 4.925C19.975 5.825 20.6877 6.88333 21.213 8.1C21.7383 9.31667 22.0007 10.6167 22 12C22 13.3833 21.7373 14.6833 21.212 15.9C20.6867 17.1167 19.9743 18.175 19.075 19.075C18.175 19.975 17.1167 20.6877 15.9 21.213C14.6833 21.7383 13.3833 22.0007 12 22Z" fill="black"/>
</svg>
