<svg width="24" height="24" viewBox="0 0 24 24" fill="none" xmlns="http://www.w3.org/2000/svg">
<path d="M13.0305 1.41001C12.752 1.14671 12.3833 1 12 1C11.6167 1 11.248 1.14671 10.9695 1.41001L3.7035 8.27701C3.48102 8.48754 3.30387 8.74128 3.1829 9.02268C3.06194 9.30408 2.9997 9.60721 3 9.91351V18.2685C3.0004 18.865 3.23763 19.4369 3.65954 19.8585C4.08145 20.2802 4.65352 20.517 5.25 20.517H7.5C8.09674 20.517 8.66904 20.28 9.09099 19.858C9.51295 19.436 9.75 18.8638 9.75 18.267V14.517C9.75 14.3181 9.82902 14.1273 9.96967 13.9867C10.1103 13.846 10.3011 13.767 10.5 13.767H13.5C13.6989 13.767 13.8897 13.846 14.0303 13.9867C14.171 14.1273 14.25 14.3181 14.25 14.517V18.267C14.25 18.8638 14.4871 19.436 14.909 19.858C15.331 20.28 15.9033 20.517 16.5 20.517H18.75C19.3467 20.517 19.919 20.28 20.341 19.858C20.7629 19.436 21 18.8638 21 18.267V9.91201C20.9999 9.60586 20.9373 9.30294 20.8161 9.02181C20.6949 8.74068 20.5176 8.48724 20.295 8.27701L13.0305 1.40701V1.41001Z" fill="black"/>
</svg>
