<svg width="12" height="14" viewBox="0 0 12 14" fill="none" xmlns="http://www.w3.org/2000/svg">
<path d="M0.7 14H11.3C11.6844 14 12 13.6906 12 13.3094V6.6875C12 6.30625 11.6875 6 11.3 6H10.625V5.03438C10.625 3.7375 10.1187 2.29688 9.29375 1.42812C8.47188 0.559375 7.29375 0 6.00313 0C6 0 6 0 6 0H5.99687C4.70625 0 3.52813 0.559375 2.70625 1.425C1.88125 2.29375 1.375 3.73438 1.375 5.03125V6H0.78125H0.7C0.3125 6 0 6.30937 0 6.6875V13.3094C0 13.6906 0.3125 14 0.7 14ZM3.03125 5.03438C3.03125 4.18125 3.34063 3.125 3.90938 2.525V2.51562C4.45938 1.93438 5.21875 1.59375 5.99687 1.59375H6H6.00313C6.78125 1.59375 7.54062 1.93438 8.09062 2.51562V2.52187L8.0875 2.525C8.65937 3.125 8.96562 4.18125 8.96562 5.03438V6H8.41875H3.575H3.03125V5.03438Z" fill="black"/>
</svg>
