<svg width="165" height="60" viewBox="0 0 165 60" fill="none" xmlns="http://www.w3.org/2000/svg">
<path d="M0.85 26L5.29 5.9H15.82L20.35 26H13.33L12.76 23.69H8.17L7.69 26H0.85ZM10.21 11.36L9.07 18.38H12.04L10.96 11.36H10.21ZM29.8502 26H21.0602V5.9H29.5502C33.0102 5.9 35.5002 6.68 37.0202 8.24C38.5402 9.8 39.3002 12.3 39.3002 15.74C39.3002 19.16 38.5702 21.73 37.1102 23.45C35.6502 25.15 33.2302 26 29.8502 26ZM32.2802 16.07C32.2802 14.27 32.0902 13.07 31.7102 12.47C31.3502 11.87 30.5302 11.57 29.2502 11.57H28.0202V20.33H29.2502C30.2902 20.33 31.0602 20.07 31.5602 19.55C32.0402 19.03 32.2802 17.87 32.2802 16.07ZM57.4096 5.9L53.4796 26H43.2196L39.1396 5.9H46.5196L48.0796 18.98H48.6196L50.0296 5.9H57.4096ZM58.1793 26V5.9H73.2393V11.45H65.1393V13.16H71.4393V18.65H65.1393V20.45H73.2393V26H58.1793ZM74.6441 26V5.9H81.4841L86.1041 13.52H86.5241V5.9H93.4841V26H86.6141L82.0541 17.81H81.6041V26H74.6441ZM94.6684 11.57V5.9H109.668V11.57H105.768V26H98.8084V11.57H94.6684ZM117.695 5.9V19.07C117.695 19.65 117.835 20.06 118.115 20.3C118.415 20.54 118.905 20.66 119.585 20.66C120.265 20.66 120.745 20.54 121.025 20.3C121.305 20.06 121.445 19.65 121.445 19.07V5.9H128.405V18.68C128.405 21.52 127.695 23.52 126.275 24.68C124.855 25.82 122.615 26.39 119.555 26.39C116.515 26.39 114.285 25.83 112.865 24.71C111.445 23.59 110.735 21.62 110.735 18.8V5.9H117.695ZM138.744 20.81H137.034V26H130.074V5.9H138.534C141.634 5.9 143.854 6.42 145.194 7.46C146.534 8.48 147.204 10.39 147.204 13.19C147.204 15.97 146.464 17.96 144.984 19.16L146.964 26H139.884L138.744 20.81ZM138.714 15.32C139.694 15.32 140.184 14.67 140.184 13.37C140.184 12.05 139.634 11.39 138.534 11.39H137.004V15.32H138.714ZM148.589 26V5.9H163.649V11.45H155.549V13.16H161.849V18.65H155.549V20.45H163.649V26H148.589Z" fill="#6893E5"/>
<path d="M1.81 56V50.03H8.65V56H1.81ZM10.3668 56V35.9H17.2068L21.8268 43.52H22.2468V35.9H29.2068V56H22.3368L17.7768 47.81H17.3268V56H10.3668ZM31.0211 56V35.9H46.0811V41.45H37.9811V43.16H44.2811V48.65H37.9811V50.45H46.0811V56H31.0211ZM46.8559 41.57V35.9H61.8559V41.57H57.9559V56H50.9959V41.57H46.8559Z" fill="#B4B2B2"/>
</svg>
