<svg width="226" height="22" viewBox="0 0 226 22" fill="none" xmlns="http://www.w3.org/2000/svg">
<path d="M0.85 21L5.29 0.899999H15.82L20.35 21H13.33L12.76 18.69H8.17L7.69 21H0.85ZM10.21 6.36L9.07 13.38H12.04L10.96 6.36H10.21ZM29.8502 21H21.0602V0.899999H29.5502C33.0102 0.899999 35.5002 1.68 37.0202 3.24C38.5402 4.8 39.3002 7.3 39.3002 10.74C39.3002 14.16 38.5702 16.73 37.1102 18.45C35.6502 20.15 33.2302 21 29.8502 21ZM32.2802 11.07C32.2802 9.27 32.0902 8.07 31.7102 7.47C31.3502 6.87 30.5302 6.57 29.2502 6.57H28.0202V15.33H29.2502C30.2902 15.33 31.0602 15.07 31.5602 14.55C32.0402 14.03 32.2802 12.87 32.2802 11.07ZM57.4096 0.899999L53.4796 21H43.2196L39.1396 0.899999H46.5196L48.0796 13.98H48.6196L50.0296 0.899999H57.4096ZM58.1793 21V0.899999H73.2393V6.45H65.1393V8.16H71.4393V13.65H65.1393V15.45H73.2393V21H58.1793ZM74.6441 21V0.899999H81.4841L86.1041 8.52H86.5241V0.899999H93.4841V21H86.6141L82.0541 12.81H81.6041V21H74.6441ZM94.6684 6.57V0.899999H109.668V6.57H105.768V21H98.8084V6.57H94.6684ZM117.695 0.899999V14.07C117.695 14.65 117.835 15.06 118.115 15.3C118.415 15.54 118.905 15.66 119.585 15.66C120.265 15.66 120.745 15.54 121.025 15.3C121.305 15.06 121.445 14.65 121.445 14.07V0.899999H128.405V13.68C128.405 16.52 127.695 18.52 126.275 19.68C124.855 20.82 122.615 21.39 119.555 21.39C116.515 21.39 114.285 20.83 112.865 19.71C111.445 18.59 110.735 16.62 110.735 13.8V0.899999H117.695ZM138.744 15.81H137.034V21H130.074V0.899999H138.534C141.634 0.899999 143.854 1.42 145.194 2.46C146.534 3.48 147.204 5.39 147.204 8.19C147.204 10.97 146.464 12.96 144.984 14.16L146.964 21H139.884L138.744 15.81ZM138.714 10.32C139.694 10.32 140.184 9.67 140.184 8.37C140.184 7.05 139.634 6.39 138.534 6.39H137.004V10.32H138.714ZM148.589 21V0.899999H163.649V6.45H155.549V8.16H161.849V13.65H155.549V15.45H163.649V21H148.589ZM164.964 21V15.03H171.804V21H164.964ZM173.521 21V0.899999H180.361L184.981 8.52H185.401V0.899999H192.361V21H185.491L180.931 12.81H180.481V21H173.521ZM194.175 21V0.899999H209.235V6.45H201.135V8.16H207.435V13.65H201.135V15.45H209.235V21H194.175ZM210.01 6.57V0.899999H225.01V6.57H221.11V21H214.15V6.57H210.01Z" fill="black"/>
</svg>
